<svg width="500" height="500" viewBox="0 0 500 500" fill="none" xmlns="http://www.w3.org/2000/svg">
<rect width="500" height="500" fill="black"/>
<ellipse cx="294.569" cy="260.091" rx="102.431" ry="100.909" fill="#D9D9D9"/>
<path d="M294.57 160.682C350.333 160.682 395.5 205.21 395.5 260.091C395.5 314.972 350.333 359.5 294.57 359.5C238.806 359.5 193.639 314.972 193.639 260.091C193.639 205.21 238.806 160.682 294.57 160.682Z" fill="black" stroke="white" stroke-width="3"/>
<path d="M293 194.5C328.092 194.5 356.5 222.504 356.5 257C356.5 291.496 328.092 319.5 293 319.5C257.908 319.5 229.5 291.496 229.5 257C229.5 222.504 257.908 194.5 293 194.5Z" fill="black" stroke="white" stroke-width="3"/>
<ellipse cx="102.431" cy="100.909" rx="102.431" ry="100.909" transform="matrix(-1 0 0 1 306.861 159.182)" fill="#D9D9D9"/>
<path d="M204.43 160.682C148.667 160.682 103.5 205.21 103.5 260.091C103.5 314.972 148.667 359.5 204.43 359.5C260.194 359.5 305.361 314.972 305.361 260.091C305.361 205.21 260.194 160.682 204.43 160.682Z" fill="black" stroke="white" stroke-width="3"/>
<path d="M208 194.5C172.908 194.5 144.5 222.504 144.5 257C144.5 291.496 172.908 319.5 208 319.5C243.092 319.5 271.5 291.496 271.5 257C271.5 222.504 243.092 194.5 208 194.5Z" fill="black" stroke="white" stroke-width="3"/>
<rect width="152" height="121" transform="matrix(-1 0 0 1 254 139)" fill="black"/>
<rect x="245.403" y="139" width="151.597" height="123.782" fill="black"/>
<rect x="192" y="139" width="115" height="176" fill="black"/>
<rect x="204.431" y="139" width="90.1389" height="222" fill="black"/>
<mask id="path-12-inside-1_27_121" fill="white">
<path d="M102 139H245V179H102V139Z"/>
</mask>
<path d="M102 139H245V179H102V139Z" fill="black"/>
<path d="M102 139V136H99V139H102ZM245 139H248V136H245V139ZM102 139V142H245V139V136H102V139ZM245 139H242V179H245H248V139H245ZM102 179H105V139H102H99V179H102Z" fill="white" mask="url(#path-12-inside-1_27_121)"/>
<mask id="path-14-inside-2_27_121" fill="white">
<path d="M102 139H207V179H102V139Z"/>
</mask>
<path d="M102 139H207V179H102V139Z" fill="black"/>
<path d="M102 139V136H99V139H102ZM102 179H99V182H102V179ZM102 139V142H207V139V136H102V139ZM207 179V176H102V179V182H207V179ZM102 179H105V139H102H99V179H102Z" fill="white" mask="url(#path-14-inside-2_27_121)"/>
<mask id="path-16-inside-3_27_121" fill="white">
<path d="M253 139H367C383.569 139 397 152.431 397 169V179.364H253V139Z"/>
</mask>
<path d="M253 139H367C383.569 139 397 152.431 397 169V179.364H253V139Z" fill="black"/>
<path d="M250 136H367C385.225 136 400 150.775 400 169H394C394 154.088 381.912 142 367 142H256L250 136ZM397 179.364H253H397ZM250 179.364V136L256 142V179.364H250ZM367 136C385.225 136 400 150.775 400 169V179.364H394V169C394 154.088 381.912 142 367 142V136Z" fill="white" mask="url(#path-16-inside-3_27_121)"/>
<mask id="path-18-inside-4_27_121" fill="white">
<path d="M292 143H329C345.569 143 359 156.431 359 173V179.364H292V143Z"/>
</mask>
<path d="M292 143H329C345.569 143 359 156.431 359 173V179.364H292V143Z" fill="black"/>
<path d="M292 143H359H292ZM359 182.364H292V176.364H359V182.364ZM292 179.364V143V179.364ZM359 143V179.364V143Z" fill="white" mask="url(#path-18-inside-4_27_121)"/>
<mask id="path-20-inside-5_27_121" fill="white">
<path d="M253 179H295V361H253V179Z"/>
</mask>
<path d="M253 179H295V361H253V179Z" fill="black"/>
<path d="M253 361H250V364H253V361ZM295 361V358H253V361V364H295V361ZM253 361H256V179H253H250V361H253Z" fill="white" mask="url(#path-20-inside-5_27_121)"/>
<mask id="path-22-inside-6_27_121" fill="white">
<path d="M253 179H295V321H253V179Z"/>
</mask>
<path d="M253 179H295V321H253V179Z" fill="black"/>
<path d="M295 179H292V321H295H298V179H295ZM253 321H256V179H253H250V321H253Z" fill="white" mask="url(#path-22-inside-6_27_121)"/>
<mask id="path-24-inside-7_27_121" fill="white">
<path d="M356.028 179.364H397V239.909H356.028V179.364Z"/>
</mask>
<path d="M356.028 179.364H397V239.909H356.028V179.364Z" fill="black"/>
<path d="M397 239.909V242.909H400V239.909H397ZM356.028 239.909H353.028V242.909H356.028V239.909ZM397 179.364H394V239.909H397H400V179.364H397ZM397 239.909V236.909H356.028V239.909V242.909H397V239.909ZM356.028 239.909H359.028V179.364H356.028H353.028V239.909H356.028Z" fill="white" mask="url(#path-24-inside-7_27_121)"/>
<mask id="path-26-inside-8_27_121" fill="white">
<path d="M146 260H102V201H146V260Z"/>
</mask>
<path d="M146 260H102V201H146V260Z" fill="black"/>
<path d="M102 201V198H99V201H102ZM146 201H149V198H146V201ZM102 260H105V201H102H99V260H102ZM102 201V204H146V201V198H102V201ZM146 201H143V260H146H149V201H146Z" fill="white" mask="url(#path-26-inside-8_27_121)"/>
<mask id="path-28-inside-9_27_121" fill="white">
<path d="M354.618 264H396.917L397 261H354.838L354.618 264Z"/>
</mask>
<path d="M354.618 264H396.917L397 261H354.838L354.618 264Z" fill="black"/>
<path d="M354.618 264V267H351.391L351.626 263.781L354.618 264ZM396.917 264L399.916 264.083L399.835 267H396.917V264ZM397 261V258H400.084L399.999 261.083L397 261ZM354.838 261L351.846 260.781L352.049 258H354.838V261ZM354.618 264V261H396.917V264V267H354.618V264ZM396.917 264L393.918 263.917L394.001 260.917L397 261L399.999 261.083L399.916 264.083L396.917 264ZM397 261V264H354.838V261V258H397V261ZM354.838 261L357.83 261.219L357.61 264.219L354.618 264L351.626 263.781L351.846 260.781L354.838 261Z" fill="white" mask="url(#path-28-inside-9_27_121)"/>
<mask id="path-30-inside-10_27_121" fill="white">
<path d="M204 179H245V361H204V179Z"/>
</mask>
<path d="M204 179H245V361H204V179Z" fill="black"/>
<path d="M245 361V364H248V361H245ZM245 179H242V361H245H248V179H245ZM245 361V358H204V361V364H245V361Z" fill="white" mask="url(#path-30-inside-10_27_121)"/>
<mask id="path-32-inside-11_27_121" fill="white">
<path d="M204 179H245V321H204V179Z"/>
</mask>
<path d="M204 179H245V321H204V179Z" fill="black"/>
<path d="M245 179H242V321H245H248V179H245ZM204 321H207V179H204H201V321H204Z" fill="white" mask="url(#path-32-inside-11_27_121)"/>
</svg>
